<?xml version="1.0" encoding="UTF-8" standalone="no"?>
<!-- Created with Inkscape (http://www.inkscape.org/) -->

<svg
   xmlns:dc="http://purl.org/dc/elements/1.1/"
   xmlns:cc="http://creativecommons.org/ns#"
   xmlns:rdf="http://www.w3.org/1999/02/22-rdf-syntax-ns#"
   xmlns:svg="http://www.w3.org/2000/svg"
   xmlns="http://www.w3.org/2000/svg"
   xmlns:sodipodi="http://sodipodi.sourceforge.net/DTD/sodipodi-0.dtd"
   xmlns:inkscape="http://www.inkscape.org/namespaces/inkscape"
   width="79.375mm"
   height="79.375mm"
   viewBox="0 0 79.375 79.375"
   version="1.1"
   id="svg1532"
   inkscape:version="0.92.4 (5da689c313, 2019-01-14)"
   sodipodi:docname="Estudia en casa.svg">
  <defs
     id="defs1526" />
  <sodipodi:namedview
     id="base"
     pagecolor="#ffffff"
     bordercolor="#666666"
     borderopacity="1.0"
     inkscape:pageopacity="0.0"
     inkscape:pageshadow="2"
     inkscape:zoom="2.2666667"
     inkscape:cx="150"
     inkscape:cy="150"
     inkscape:document-units="mm"
     inkscape:current-layer="layer1"
     showgrid="false"
     fit-margin-top="0"
     fit-margin-left="0"
     fit-margin-right="0"
     fit-margin-bottom="0"
     inkscape:window-width="1440"
     inkscape:window-height="847"
     inkscape:window-x="-8"
     inkscape:window-y="22"
     inkscape:window-maximized="1" />
  <metadata
     id="metadata1529">
    <rdf:RDF>
      <cc:Work
         rdf:about="">
        <dc:format>image/svg+xml</dc:format>
        <dc:type
           rdf:resource="http://purl.org/dc/dcmitype/StillImage" />
        <dc:title></dc:title>
      </cc:Work>
    </rdf:RDF>
  </metadata>
  <g
     inkscape:label="Capa 1"
     inkscape:groupmode="layer"
     id="layer1"
     transform="translate(-63.87799,-118.21727)">
    <g
       id="g1339-6-7-5-0"
       transform="matrix(16.636797,0,0,16.636797,-4808.5788,-4918.4365)"
       inkscape:export-xdpi="300"
       inkscape:export-ydpi="300">
      <circle
         r="2.3855252"
         cy="305.12732"
         cx="295.25781"
         id="path193-7-4-9-9-3-9-7-5"
         style="opacity:1;fill:#ffffff;fill-opacity:1;fill-rule:nonzero;stroke:none;stroke-width:0.40164238;stroke-linecap:butt;stroke-linejoin:miter;stroke-miterlimit:4;stroke-dasharray:none;stroke-dashoffset:0;stroke-opacity:1;paint-order:normal" />
      <path
         transform="matrix(0.26458333,0,0,0.26458333,74.744135,178.19029)"
         d="m 833.63867,471.97461 a 0.16950024,0.16950024 0 0 0 -0.0508,0.0117 c -0.0814,0.003 -0.16246,0.009 -0.23242,0.0351 a 0.16950024,0.16950024 0 0 0 -0.01,0.004 c -0.026,0.0116 -0.092,0.0439 -0.1582,0.10742 -0.0662,0.0635 -0.15958,0.16692 -0.33789,0.3711 -0.35662,0.40834 -1.04455,1.21845 -2.44141,2.85937 -0.88138,1.0353 -1.52256,1.795 -1.9414,2.30274 -0.20942,0.25386 -0.36311,0.44441 -0.46485,0.57617 -0.0509,0.0659 -0.0881,0.11619 -0.11523,0.15625 -0.0136,0.02 -0.0245,0.0362 -0.0352,0.0566 -0.005,0.0102 -0.0114,0.0208 -0.0176,0.041 -0.003,0.0101 -0.008,0.0439 -0.008,0.0449 -3e-5,5.3e-4 0.002,0.0386 0.002,0.0391 7e-5,4.2e-4 0.0194,0.0544 0.0195,0.0547 0.0771,0.13978 0.21865,0.20102 0.35937,0.22461 0.14072,0.0236 0.2931,0.008 0.43359,-0.0586 v 0.002 c 0.0671,-0.0316 0.0756,-0.0538 0.11329,-0.0898 0.0377,-0.0361 0.0849,-0.0831 0.14257,-0.14453 0.11528,-0.12278 0.27509,-0.29905 0.48438,-0.53711 0.41858,-0.47612 1.03478,-1.19512 1.88086,-2.18945 0.6665,-0.78326 1.27769,-1.49752 1.72461,-2.01758 0.22346,-0.26003 0.40544,-0.47033 0.5332,-0.61719 0.0372,-0.0428 0.0584,-0.0682 0.0859,-0.0996 0.0227,0.0245 0.0374,0.0404 0.0664,0.0723 0.12087,0.13301 0.29539,0.32833 0.50781,0.57031 0.42484,0.48397 1.00509,1.15478 1.63867,1.89648 0.63406,0.74229 1.2297,1.44042 1.67969,1.96485 0.44998,0.52443 0.74183,0.86316 0.80664,0.93359 0.11774,0.12794 0.2285,0.22153 0.35742,0.27539 0.12892,0.0539 0.27011,0.0579 0.40625,0.0274 0.0933,-0.0212 0.17442,-0.0554 0.24219,-0.11328 0.0678,-0.0579 0.12002,-0.15612 0.11133,-0.25586 -0.006,-0.0679 -0.0379,-0.12982 -0.0723,-0.17383 h 0.002 c -0.11754,-0.15137 -0.58234,-0.69796 -1.17773,-1.39649 a 0.16950024,0.16950024 0 0 0 -0.004,-0.006 c -1.43016,-1.54829 -2.6915,-3.27817 -4.16992,-4.82031 a 0.16950024,0.16950024 0 0 0 -0.0391,-0.0293 c -0.0973,-0.0558 -0.20248,-0.074 -0.30664,-0.0781 a 0.16950024,0.16950024 0 0 0 -0.0156,0 z m -0.0996,5.91211 c -1.46338,-1.5e-4 -2.38519,9.2e-4 -2.94336,0.004 -0.27908,0.001 -0.46713,0.003 -0.58789,0.006 -0.0604,0.001 -0.103,0.004 -0.13476,0.006 -0.0159,9.2e-4 -0.0288,1.7e-4 -0.043,0.002 -0.007,8.9e-4 -0.0146,0.003 -0.0273,0.006 -0.006,0.002 -0.0268,0.008 -0.0273,0.008 -2.8e-4,1.2e-4 -0.0252,0.0135 -0.0254,0.0137 -1.3e-4,8e-5 -0.0172,0.0148 -0.0293,0.0254 -0.001,0.001 -8.3e-4,8e-4 -0.002,0.002 -0.0372,0.0383 -0.0406,0.0586 -0.0469,0.0762 -0.006,0.0181 -0.0104,0.0331 -0.0137,0.0488 -0.007,0.0314 -0.0113,0.0643 -0.0137,0.0977 l -0.01,0.0859 a 0.16950024,0.16950024 0 0 0 0.0312,0.12109 l 1.61718,2.21289 c 0.4448,0.60871 0.84883,1.16332 1.14258,1.56641 0.14688,0.20154 0.26716,0.36494 0.34961,0.47851 0.0229,0.0316 0.0357,0.0487 0.0527,0.0723 -0.013,0.0157 -0.0208,0.0254 -0.0371,0.0449 -0.0768,0.0919 -0.18803,0.22552 -0.32618,0.38867 -0.2763,0.32631 -0.65803,0.77537 -1.07812,1.26758 -0.922,1.08023 -1.34561,1.57506 -1.54102,1.81055 -0.0977,0.11774 -0.13528,0.16161 -0.16601,0.21484 -0.0145,0.0252 -0.0323,0.081 -0.0234,0.13672 0.003,0.0349 0.0256,0.11423 0.082,0.15625 0.0506,0.0377 0.0837,0.0389 0.11524,0.043 1.6e-4,4e-5 0.005,0.001 0.008,0.002 0.002,2.2e-4 0.004,0.002 0.006,0.002 0.005,8.8e-4 0.01,0.002 0.0117,0.002 0.004,4.2e-4 0.008,-1.9e-4 0.0117,0 0.007,3.8e-4 0.0134,-2.6e-4 0.0215,0 0.0162,5.2e-4 0.0377,0.002 0.0644,0.002 0.0536,8.9e-4 0.12842,0.001 0.22461,0.002 0.19239,0.001 0.46588,0.003 0.80078,0.004 0.66981,0.002 1.58561,0.004 2.58399,0.004 h 3.63086 a 0.16950024,0.16950024 0 0 0 0.1582,-0.10938 l 0.35742,-0.94531 c 0.0985,-0.25979 0.18922,-0.49968 0.25586,-0.67773 0.0333,-0.089 0.0606,-0.16407 0.0801,-0.2168 0.01,-0.0264 0.0178,-0.0468 0.0234,-0.0625 0.004,-0.0119 0.006,-0.0186 0.01,-0.0312 0.005,-0.0137 0.0136,-0.0289 0.0137,-0.0723 4e-5,-0.0434 -0.0389,-0.1271 -0.0859,-0.15625 -0.0941,-0.0583 -0.11192,-0.0312 -0.14649,-0.0312 h -0.0703 a 0.16950024,0.16950024 0 0 0 -0.15039,0.0918 l -0.0762,0.14844 c -0.12766,0.24916 -0.31792,0.4607 -0.57813,0.63476 -0.47616,0.31853 -1.0248,0.4684 -2.00781,0.53321 -0.033,0.002 -0.35531,0.007 -0.77539,0.01 -0.42114,0.003 -0.96063,0.005 -1.49219,0.006 -0.53156,0.001 -1.05444,0.003 -1.44531,0.002 -0.12083,-2e-4 -0.1994,-0.002 -0.29102,-0.002 0.066,-0.0781 0.12534,-0.14788 0.2168,-0.25586 0.27594,-0.32578 0.65713,-0.77415 1.07617,-1.26562 0.41915,-0.49164 0.80726,-0.94497 1.09375,-1.28125 0.14325,-0.16814 0.26156,-0.30724 0.34571,-0.40625 0.0841,-0.099 0.12412,-0.14632 0.14453,-0.17188 0.0268,-0.0334 0.051,-0.0592 0.0703,-0.11914 0.0193,-0.0599 0.003,-0.13069 -0.008,-0.16015 a 0.16950024,0.16950024 0 0 0 -0.002,-0.006 c -3.5e-4,-8.3e-4 -0.0126,-0.0245 -0.0156,-0.0293 -0.003,-0.005 -0.006,-0.009 -0.01,-0.0137 -0.007,-0.01 -0.015,-0.0221 -0.0254,-0.0371 -0.0208,-0.03 -0.0487,-0.0707 -0.0859,-0.12305 -0.0745,-0.10461 -0.18048,-0.25153 -0.31055,-0.43164 -0.26014,-0.36021 -0.61722,-0.85079 -1.00781,-1.38476 -0.39035,-0.53362 -0.74678,-1.02289 -1.00586,-1.37891 -0.10216,-0.14039 -0.17412,-0.23999 -0.24219,-0.33399 0.009,-7e-5 0.008,7e-5 0.0176,0 0.27574,-0.002 0.76936,1.6e-4 1.62304,0.004 2.01061,0.008 2.08307,0.009 2.60743,0.0723 1.09236,0.13631 1.78846,0.52796 2.11328,1.13281 l 0.0664,0.12305 a 0.16950024,0.16950024 0 0 0 0.14844,0.0898 h 0.0723 c 0.0283,0 0.0538,-0.002 0.084,-0.008 0.0151,-0.003 0.0294,-0.004 0.0606,-0.0215 0.008,-0.004 0.0268,-0.0191 0.0273,-0.0195 5.3e-4,-4.3e-4 0.0349,-0.0367 0.0352,-0.0371 3e-4,-4.5e-4 0.0273,-0.0738 0.0273,-0.0742 6e-5,-4.5e-4 -0.009,-0.0779 -0.01,-0.082 -0.002,-0.005 -0.003,-0.01 -0.004,-0.0117 -0.002,-0.005 -0.003,-0.009 -0.006,-0.0156 -0.005,-0.0131 -0.0139,-0.0302 -0.0234,-0.0527 -0.0191,-0.045 -0.045,-0.11006 -0.0781,-0.1875 -0.0663,-0.15486 -0.15685,-0.36473 -0.25586,-0.5957 l -0.35938,-0.83984 a 0.16950024,0.16950024 0 0 0 -0.15625,-0.10352 z m -3.88281,8.69531 c 5.1e-4,0.003 -0.003,0.005 -0.002,0.008 0.0132,0.0591 0.006,0.034 0.002,-0.004 z"
         id="path85-4-2-7-6-7-4-2-4-3-3-3-6-6"
         style="fill:#03045f;fill-opacity:0.94117647;stroke-width:0.03913621"
         inkscape:original="M 833.64844 472.14453 L 833.64844 472.14648 C 833.56264 472.14348 833.47529 472.15699 833.41406 472.17969 C 833.29161 472.23449 833.33086 472.19079 830.53711 475.47266 C 828.77487 477.54263 827.97436 478.51331 827.99609 478.55273 C 828.07699 478.69938 828.3603 478.74709 828.56836 478.64844 C 828.66706 478.60194 829.44117 477.72049 831.13281 475.73242 C 832.46612 474.16554 833.57671 472.87376 833.59961 472.86133 C 833.62231 472.85003 834.67927 474.0527 835.94727 475.53711 C 837.21526 477.02152 838.33172 478.32322 838.42969 478.42969 C 838.64814 478.66704 838.80584 478.73229 839.03125 478.68164 C 839.18092 478.64764 839.26109 478.57653 839.25391 478.49414 C 839.25191 478.46394 839.2395 478.4373 839.2168 478.4082 C 839.11173 478.2729 838.64012 477.71588 838.04492 477.01758 C 836.60583 475.45962 835.34481 473.73034 833.87695 472.19922 C 833.81765 472.16522 833.73423 472.14793 833.64844 472.14453 z M 833.53906 478.05664 C 830.61246 478.05634 829.85269 478.06067 829.83984 478.07617 C 829.82854 478.08747 829.81825 478.14047 829.81445 478.19336 L 829.80273 478.28906 L 831.41992 480.50195 C 832.30958 481.71945 833.03905 482.72029 833.04102 482.72656 C 833.04302 482.73456 832.356 483.54465 831.51562 484.5293 C 829.67156 486.68983 829.81817 486.51436 829.82422 486.56641 C 829.82722 486.60041 829.83888 486.60919 829.89258 486.61719 C 829.92658 486.62519 831.5894 486.62891 833.58594 486.62891 L 837.2168 486.62891 L 837.57422 485.68359 C 837.77113 485.16444 837.93611 484.72298 837.94141 484.70312 C 837.95271 484.66913 837.94641 484.66602 837.88281 484.66602 L 837.8125 484.66602 L 837.73633 484.81445 C 837.59497 485.09036 837.38283 485.32357 837.10156 485.51172 C 836.59533 485.85036 836.00819 486.00853 835.01172 486.07422 C 834.76945 486.08932 830.63672 486.09734 830.63672 486.08594 C 830.63672 486.08294 831.32182 485.27231 832.16016 484.28906 C 832.99846 483.30578 833.71004 482.47139 833.74023 482.43359 C 833.78903 482.37279 833.79244 482.35999 833.77734 482.32031 C 833.76604 482.29381 833.12261 481.4014 832.3418 480.33398 C 831.56098 479.26657 830.91698 478.38184 830.91211 478.36914 C 830.90081 478.35024 831.1635 478.34797 832.87109 478.35547 C 834.88331 478.36347 834.97279 478.36579 835.5 478.42969 C 836.62369 478.56991 837.38205 478.98342 837.74023 479.65039 L 837.80664 479.77344 L 837.87891 479.77344 C 837.91861 479.77344 837.94831 479.76747 837.94531 479.75977 C 837.94231 479.74847 837.77813 479.36631 837.58008 478.9043 L 837.2207 478.06445 L 833.53906 478.05664 z "
         inkscape:radius="0.16948329"
         sodipodi:type="inkscape:offset" />
    </g>
  </g>
</svg>
